<mxfile host="app.diagrams.net" modified="2023-07-12T07:04:13.901Z" agent="Mozilla/5.0 (Windows NT 10.0; Win64; x64) AppleWebKit/537.36 (KHTML, like Gecko) Chrome/114.0.0.0 Safari/537.36 Edg/114.0.1823.67" etag="XYzOvv0FdCHqShP7It62" version="21.6.1" type="github">
  <diagram name="第 1 页" id="cM-F5ZtJHZw_HgdOL5fP">
    <mxGraphModel dx="1154" dy="796" grid="1" gridSize="10" guides="1" tooltips="1" connect="1" arrows="1" fold="1" page="1" pageScale="1" pageWidth="1169" pageHeight="827" math="0" shadow="0">
      <root>
        <mxCell id="0" />
        <mxCell id="1" parent="0" />
        <mxCell id="0ema9HI3ArgiAyPgMtRp-3" style="edgeStyle=orthogonalEdgeStyle;rounded=0;orthogonalLoop=1;jettySize=auto;html=1;entryX=0.5;entryY=0;entryDx=0;entryDy=0;" edge="1" parent="1" source="0ema9HI3ArgiAyPgMtRp-1" target="0ema9HI3ArgiAyPgMtRp-2">
          <mxGeometry relative="1" as="geometry" />
        </mxCell>
        <mxCell id="0ema9HI3ArgiAyPgMtRp-1" value="根据指标任务id查出所有项目组成节点信息" style="rounded=1;whiteSpace=wrap;html=1;sketch=1;curveFitting=1;jiggle=2;" vertex="1" parent="1">
          <mxGeometry x="330" y="110" width="120" height="60" as="geometry" />
        </mxCell>
        <mxCell id="0ema9HI3ArgiAyPgMtRp-5" style="edgeStyle=orthogonalEdgeStyle;rounded=0;orthogonalLoop=1;jettySize=auto;html=1;entryX=0.5;entryY=0;entryDx=0;entryDy=0;" edge="1" parent="1" source="0ema9HI3ArgiAyPgMtRp-2" target="0ema9HI3ArgiAyPgMtRp-13">
          <mxGeometry relative="1" as="geometry">
            <mxPoint x="390" y="330" as="targetPoint" />
          </mxGeometry>
        </mxCell>
        <mxCell id="0ema9HI3ArgiAyPgMtRp-2" value="遍历节点列表" style="rounded=1;whiteSpace=wrap;html=1;sketch=1;curveFitting=1;jiggle=2;" vertex="1" parent="1">
          <mxGeometry x="330" y="220" width="120" height="60" as="geometry" />
        </mxCell>
        <mxCell id="0ema9HI3ArgiAyPgMtRp-4" value="时间复杂度O(n^2)" style="rounded=0;whiteSpace=wrap;html=1;fillColor=#dae8fc;strokeColor=#6c8ebf;" vertex="1" parent="1">
          <mxGeometry x="560" y="270" width="170" height="30" as="geometry" />
        </mxCell>
        <mxCell id="0ema9HI3ArgiAyPgMtRp-14" style="edgeStyle=orthogonalEdgeStyle;rounded=0;orthogonalLoop=1;jettySize=auto;html=1;" edge="1" parent="1" source="0ema9HI3ArgiAyPgMtRp-13" target="0ema9HI3ArgiAyPgMtRp-16">
          <mxGeometry relative="1" as="geometry">
            <mxPoint x="320" y="490" as="targetPoint" />
          </mxGeometry>
        </mxCell>
        <mxCell id="0ema9HI3ArgiAyPgMtRp-15" value="ParentID为空" style="edgeLabel;html=1;align=center;verticalAlign=middle;resizable=0;points=[];" vertex="1" connectable="0" parent="0ema9HI3ArgiAyPgMtRp-14">
          <mxGeometry x="0.2915" y="4" relative="1" as="geometry">
            <mxPoint as="offset" />
          </mxGeometry>
        </mxCell>
        <mxCell id="0ema9HI3ArgiAyPgMtRp-17" style="edgeStyle=orthogonalEdgeStyle;rounded=0;orthogonalLoop=1;jettySize=auto;html=1;entryX=0.5;entryY=0;entryDx=0;entryDy=0;" edge="1" parent="1" source="0ema9HI3ArgiAyPgMtRp-13" target="0ema9HI3ArgiAyPgMtRp-18">
          <mxGeometry relative="1" as="geometry">
            <mxPoint x="470" y="470" as="targetPoint" />
          </mxGeometry>
        </mxCell>
        <mxCell id="0ema9HI3ArgiAyPgMtRp-19" value="ParentId不为空" style="edgeLabel;html=1;align=center;verticalAlign=middle;resizable=0;points=[];" vertex="1" connectable="0" parent="0ema9HI3ArgiAyPgMtRp-17">
          <mxGeometry x="0.4875" y="-3" relative="1" as="geometry">
            <mxPoint as="offset" />
          </mxGeometry>
        </mxCell>
        <mxCell id="0ema9HI3ArgiAyPgMtRp-13" value="stream流筛选ParentId值&lt;br&gt;即二次遍历列表" style="rhombus;whiteSpace=wrap;html=1;sketch=1;curveFitting=1;jiggle=2;" vertex="1" parent="1">
          <mxGeometry x="310" y="320" width="160" height="80" as="geometry" />
        </mxCell>
        <mxCell id="0ema9HI3ArgiAyPgMtRp-16" value="设置为根节点" style="rounded=1;whiteSpace=wrap;html=1;sketch=1;curveFitting=1;jiggle=2;" vertex="1" parent="1">
          <mxGeometry x="250" y="470" width="120" height="60" as="geometry" />
        </mxCell>
        <mxCell id="0ema9HI3ArgiAyPgMtRp-18" value="设置为对应结点的children" style="rounded=1;whiteSpace=wrap;html=1;sketch=1;curveFitting=1;jiggle=2;" vertex="1" parent="1">
          <mxGeometry x="420" y="470" width="120" height="60" as="geometry" />
        </mxCell>
      </root>
    </mxGraphModel>
  </diagram>
</mxfile>
